<svg xmlns="http://www.w3.org/2000/svg" width="32" height="32" viewBox="0 0 32 32" fill="none">
  <g transform="translate(4.05 3.93)">
    <path d="M10.6429 7.33698C11.2587 7.06787 11.2883 6.58074 11.4755 5.99946C11.5272 5.83901 11.5716 5.675 11.6209 5.51369L12.3768 3.03022C12.5582 2.43487 12.7227 1.7492 13.0704 1.23409C13.5226 .5645 14.3318 .0932726 15.1344 .0191287C15.5346 -.010832 15.9782 .0033573 16.3819 .00355715L18.4762 .00438965L21.5031 .00478964C22.0413 .00448986 22.5787 .00277448 23.118 .00550575C23.3458 .00667154 23.5503 .0790832 23.6449 .308327C23.6786 .389582 23.6959 .491105 23.6766 .578806C23.5941 .876664 23.4897 1.18012 23.3936 1.4738L22.8779 3.07194L22.3201 4.84341C22.2202 5.16052 22.0863 5.63145 21.9522 5.92092C21.6468 6.57068 21.0927 7.07025 20.415 7.30722C19.9043 7.48895 19.3603 7.44683 18.8214 7.44611L17.644 7.44506L14.067 7.4451C13.5193 7.44518 12.794 7.42177 12.2664 7.44731C12.2299 7.45144 12.2331 7.45168 12.1954 7.44373C11.704 7.34018 11.1717 7.43106 10.6767 7.36924C10.6654 7.35848 10.6542 7.34772 10.6429 7.33698Z" fill="#0066FF"/>
    <path d="M12.2667 7.44699C11.4964 7.55608 11.41 8.29345 11.2127 8.8999C10.9201 9.82625 10.6325 10.7542 10.35 11.6838C10.2276 12.0818 10.0236 12.8444 9.84206 13.1853C9.53312 13.7617 9.00849 14.1924 8.38288 14.3831C7.94547 14.5161 7.49558 14.4873 7.04164 14.4867L6.03798 14.4868L3.41538 14.4865L1.48807 14.4858C1.16677 14.486 .848123 14.4912 .525067 14.485C.165556 14.4783 -.071632 14.2264 .0195991 13.8636C.0813857 13.618 .166205 13.371 .242298 13.128L.670774 11.7569L1.21415 9.99717C1.34921 9.55918 1.48904 9.00512 1.70966 8.6113C2.10662 7.9027 2.91964 7.40356 3.73426 7.39363C3.99326 7.39049 4.25813 7.39242 4.5196 7.39303L5.6447 7.39353L9.10565 7.39347C9.49385 7.394 10.312 7.42782 10.6433 7.33666C10.6545 7.3474 10.6658 7.35816 10.677 7.36892C11.172 7.43074 11.7043 7.33986 12.1958 7.44341C12.2334 7.45136 12.2302 7.45112 12.2667 7.44699Z" fill="#3385FF"/>
  </g>
  <g transform="translate(4 12.86)">
    <path d="M12.5459 7.03868C12.0171 7.23204 11.8559 7.46753 11.6896 7.99929C11.6153 8.23678 11.533 8.48892 11.4574 8.72741L10.6343 11.2653C10.4958 11.6957 10.2589 12.5179 10.0672 12.8878C9.91719 13.171 9.71484 13.4234 9.47092 13.6312C8.61679 14.3665 7.71678 14.2374 6.67572 14.2374L4.08012 14.2369H1.70778C1.31118 14.2376 .903633 14.2432 .506767 14.2331C.365657 14.2296 .185277 14.1636 .0943288 14.0497C.0216004 13.9598 -.0160048 13.7956 .00649489 13.6805C.0677153 13.3676 .193604 13.0337 .289431 12.73L.862764 10.8901L1.30501 9.47668C1.40346 9.16258 1.50918 8.78137 1.64822 8.49142C1.74606 8.28441 1.87243 8.09222 2.02365 7.92052C2.37107 7.51865 2.88355 7.20656 3.40018 7.07949C3.75426 6.99239 4.19485 7.00904 4.56483 7.00887H5.63482L9.37799 7.00871C9.84444 7.00921 10.416 7.03485 10.8746 6.97973C11.0312 6.96091 11.2263 6.81985 11.3518 6.72392C11.3025 6.83834 11.2783 6.8793 11.2077 6.98306C11.5875 7.00954 12.1958 6.97423 12.5459 7.03868Z" fill="#ACD4FF"/>
    <path d="M11.3519 6.72449C11.7855 6.35159 11.7466 5.85198 11.8943 5.36419L12.5839 3.09773L12.8501 2.22041C13.0957 1.40078 13.2961 .902992 14.0517 .405168C14.7993 -.0874428 15.5041 .00713652 16.3523 .00751956L18.7048 .00836833L21.9507 .00876882C22.4731 .00871886 23.0079 .00340555 23.5305 .012049C23.6269 .0136478 23.7395 .0530348 23.8161 .113706C23.9179 .193845 23.9835 .311273 23.9983 .439959C24.022 .649501 23.7483 1.41649 23.6667 1.67607L23.1463 3.34271L22.7404 4.6409C22.6657 4.88039 22.5746 5.20347 22.4818 5.4308C22.38 5.68428 22.2385 5.91993 22.0624 6.12877C21.6458 6.61857 21.0061 6.98463 20.3614 7.0246C20.1004 7.04075 19.8042 7.03559 19.5405 7.03576L18.2047 7.03542L14.5305 7.03459C13.8886 7.03442 13.1803 7.01844 12.546 7.03925C12.1959 6.9748 10.9158 6.99071 10.9158 6.99071C10.9158 6.99071 11.2006 6.85459 11.3519 6.72449Z" fill="#3385FF"/>
  </g>
</svg>
